<svg width="24" height="28" viewBox="0 0 24 28" fill="none" xmlns="http://www.w3.org/2000/svg">
<path d="M17.9014 0.0140123C17.8419 -0.0524877 15.6981 0.0402623 13.8326 2.06501C11.9671 4.08801 12.2541 6.40851 12.2961 6.46801C12.3381 6.52751 14.9561 6.62026 16.6274 4.26651C18.2986 1.91276 17.9609 0.0822623 17.9014 0.0140123ZM23.7009 20.5468C23.6169 20.3788 19.6321 18.3873 20.0031 14.5583C20.3741 10.7275 22.9344 9.67751 22.9746 9.56376C23.0149 9.45001 21.9299 8.18126 20.7801 7.53901C19.936 7.0862 19.0017 6.82678 18.0449 6.77951C17.8559 6.77426 17.1996 6.61326 15.8504 6.98251C14.9614 7.22576 12.9576 8.01326 12.4064 8.04476C11.8534 8.07626 10.2084 7.13126 8.43913 6.88101C7.30688 6.66226 6.10638 7.11026 5.24713 7.45501C4.38963 7.79801 2.75863 8.77451 1.61763 11.3698C0.476628 13.9633 1.07338 18.0723 1.50038 19.3498C1.92738 20.6255 2.59413 22.7168 3.72813 24.2428C4.73613 25.9648 6.07313 27.16 6.63138 27.566C7.18963 27.972 8.76463 28.2415 9.85663 27.6833C10.7351 27.1443 12.3206 26.8345 12.9471 26.8573C13.5719 26.88 14.8039 27.1268 16.0656 27.8005C17.0649 28.1453 18.0099 28.0018 18.9566 27.6168C19.9034 27.23 21.2736 25.7635 22.8731 22.7903C23.4804 21.4078 23.7569 20.6605 23.7009 20.5468Z" fill="currentColor"/>
<path d="M17.9014 0.0140123C17.8419 -0.0524877 15.6981 0.0402623 13.8326 2.06501C11.9671 4.08801 12.2541 6.40851 12.2961 6.46801C12.3381 6.52751 14.9561 6.62026 16.6274 4.26651C18.2986 1.91276 17.9609 0.0822623 17.9014 0.0140123ZM23.7009 20.5468C23.6169 20.3788 19.6321 18.3873 20.0031 14.5583C20.3741 10.7275 22.9344 9.67751 22.9746 9.56376C23.0149 9.45001 21.9299 8.18126 20.7801 7.53901C19.936 7.0862 19.0017 6.82678 18.0449 6.77951C17.8559 6.77426 17.1996 6.61326 15.8504 6.98251C14.9614 7.22576 12.9576 8.01326 12.4064 8.04476C11.8534 8.07626 10.2084 7.13126 8.43913 6.88101C7.30688 6.66226 6.10638 7.11026 5.24713 7.45501C4.38963 7.79801 2.75863 8.77451 1.61763 11.3698C0.476628 13.9633 1.07338 18.0723 1.50038 19.3498C1.92738 20.6255 2.59413 22.7168 3.72813 24.2428C4.73613 25.9648 6.07313 27.16 6.63138 27.566C7.18963 27.972 8.76463 28.2415 9.85663 27.6833C10.7351 27.1443 12.3206 26.8345 12.9471 26.8573C13.5719 26.88 14.8039 27.1268 16.0656 27.8005C17.0649 28.1453 18.0099 28.0018 18.9566 27.6168C19.9034 27.23 21.2736 25.7635 22.8731 22.7903C23.4804 21.4078 23.7569 20.6605 23.7009 20.5468Z" fill="currentColor"/>
</svg>
