<svg width="26" height="27" viewBox="0 0 26 27" fill="none" xmlns="http://www.w3.org/2000/svg">
<path d="M25.8331 13.5532C25.8331 12.4765 25.7458 11.6908 25.5567 10.876H13.2617V15.7357H20.4786C20.3331 16.9434 19.5474 18.7622 17.8014 19.9844L17.7769 20.1471L21.6643 23.1586L21.9337 23.1855C24.4072 20.9011 25.8331 17.54 25.8331 13.5532Z" fill="#4285F4"/>
<path d="M13.2619 26.3578C16.7976 26.3578 19.7658 25.1937 21.9339 23.1859L17.8016 19.9847C16.6958 20.7559 15.2116 21.2943 13.2619 21.2943C9.79898 21.2943 6.85985 19.0099 5.81213 15.8525L5.65856 15.8656L1.61634 18.9939L1.56348 19.1408C3.71689 23.4186 8.14018 26.3578 13.2619 26.3578Z" fill="#34A853"/>
<path d="M5.81195 15.8523C5.5355 15.0375 5.37551 14.1644 5.37551 13.2624C5.37551 12.3602 5.5355 11.4872 5.79741 10.6724L5.79008 10.4989L1.69721 7.32031L1.5633 7.38401C0.675769 9.15916 0.166504 11.1526 0.166504 13.2624C0.166504 15.3722 0.675769 17.3655 1.5633 19.1406L5.81195 15.8523Z" fill="#FBBC05"/>
<path d="M13.2619 5.23045C15.7209 5.23045 17.3796 6.29261 18.3254 7.18024L22.0211 3.57175C19.7514 1.46197 16.7976 0.166992 13.2619 0.166992C8.14018 0.166992 3.71689 3.10612 1.56348 7.38387L5.79759 10.6723C6.85985 7.51487 9.79898 5.23045 13.2619 5.23045Z" fill="#EB4335"/>
</svg>
